<svg width="720" height="360" viewBox="0 0 720 360" xmlns="http://www.w3.org/2000/svg" role="img" aria-labelledby="title desc">
  <title>Resultados de gráficos de MC Diet Planner</title>
  <desc>Gráfico de barras y líneas que representa calorías y proteína durante la simulación.</desc>
  <rect width="720" height="360" fill="#f8fafc"/>
  <rect x="40" y="40" width="640" height="260" fill="#ffffff" rx="22" ry="22" stroke="#cbd5e1" stroke-width="2"/>
  <line x1="80" y1="260" x2="620" y2="260" stroke="#94a3b8" stroke-width="1"/>
  <line x1="80" y1="220" x2="620" y2="220" stroke="#e2e8f0" stroke-width="1"/>
  <line x1="80" y1="180" x2="620" y2="180" stroke="#e2e8f0" stroke-width="1"/>
  <line x1="80" y1="140" x2="620" y2="140" stroke="#e2e8f0" stroke-width="1"/>
  <line x1="80" y1="100" x2="620" y2="100" stroke="#e2e8f0" stroke-width="1"/>
  <line x1="80" y1="260" x2="80" y2="80" stroke="#94a3b8" stroke-width="1"/>
  <rect x="100" y="190" width="40" height="70" fill="#2563eb" rx="10"/>
  <rect x="170" y="150" width="40" height="110" fill="#2563eb" rx="10"/>
  <rect x="240" y="170" width="40" height="90" fill="#2563eb" rx="10"/>
  <rect x="310" y="130" width="40" height="130" fill="#2563eb" rx="10"/>
  <rect x="380" y="110" width="40" height="150" fill="#2563eb" rx="10"/>
  <path d="M 100 210 C 160 170 200 150 240 160 S 320 130 380 140 S 420 120 520 145" fill="none" stroke="#16a34a" stroke-width="4" stroke-linecap="round"/>
  <circle cx="100" cy="210" r="7" fill="#16a34a"/>
  <circle cx="240" cy="160" r="7" fill="#16a34a"/>
  <circle cx="380" cy="140" r="7" fill="#16a34a"/>
  <circle cx="520" cy="145" r="7" fill="#16a34a"/>
  <text x="88" y="285" fill="#475569" font-family="Inter, Arial, sans-serif" font-size="12">Día 10</text>
  <text x="238" y="285" fill="#475569" font-family="Inter, Arial, sans-serif" font-size="12">Día 40</text>
  <text x="376" y="285" fill="#475569" font-family="Inter, Arial, sans-serif" font-size="12">Día 70</text>
  <text x="516" y="285" fill="#475569" font-family="Inter, Arial, sans-serif" font-size="12">Día 100</text>
  <text x="120" y="70" fill="#0f172a" font-family="Inter, Arial, sans-serif" font-size="18" font-weight="700">Resultados de simulación</text>
  <rect x="540" y="90" width="130" height="90" rx="14" fill="#f1f5f9" stroke="#cbd5e1"/>
  <circle cx="565" cy="120" r="8" fill="#2563eb"/>
  <circle cx="585" cy="120" r="8" fill="#16a34a"/>
  <text x="590" y="126" fill="#334155" font-family="Inter, Arial, sans-serif" font-size="12">Calorías</text>
  <text x="565" y="146" fill="#334155" font-family="Inter, Arial, sans-serif" font-size="12">Proteína</text>
</svg>
